<svg xmlns="http://www.w3.org/2000/svg" xmlns:xlink="http://www.w3.org/1999/xlink" width="86.316" height="86.316" viewBox="0 0 86.316 86.316">
  <defs>
    <clipPath id="clip-path">
      <circle id="Ellipse_46" data-name="Ellipse 46" cx="43.158" cy="43.158" r="43.158" fill="none"/>
    </clipPath>
  </defs>
  <g id="Group_69" data-name="Group 69" transform="translate(465.161 -1123.147)">
    <g id="Group_65" data-name="Group 65" transform="translate(-465.161 1123.147)">
      <g id="Group_64" data-name="Group 64" clip-path="url(#clip-path)">
        <circle id="Ellipse_45" data-name="Ellipse 45" cx="43.158" cy="43.158" r="43.158" fill="#e30249"/>
      </g>
    </g>
    <path id="Path_96" data-name="Path 96" d="M-443.009,1136.063a34.157,34.157,0,0,0-15.076,28.354,34.194,34.194,0,0,0,34.193,34.194,34.2,34.2,0,0,0,34.195-34.194,34.194,34.194,0,0,0-34.195-34.194" transform="translate(1.888 1.888)" fill="none" stroke="#fff" stroke-linecap="round" stroke-miterlimit="10" stroke-width="1.701"/>
    <line id="Line_11" data-name="Line 11" y2="4.684" transform="translate(-422.003 1141.048)" fill="none" stroke="#fff" stroke-linecap="round" stroke-miterlimit="10" stroke-width="1.701"/>
    <line id="Line_12" data-name="Line 12" y2="4.684" transform="translate(-422.003 1186.826)" fill="none" stroke="#fff" stroke-linecap="round" stroke-miterlimit="10" stroke-width="1.701"/>
    <line id="Line_13" data-name="Line 13" x1="4.684" transform="translate(-401.456 1166.279)" fill="none" stroke="#fff" stroke-linecap="round" stroke-miterlimit="10" stroke-width="1.701"/>
    <line id="Line_14" data-name="Line 14" x1="4.684" transform="translate(-447.234 1166.279)" fill="none" stroke="#fff" stroke-linecap="round" stroke-miterlimit="10" stroke-width="1.701"/>
    <line id="Line_15" data-name="Line 15" x1="2.593" y2="3.901" transform="translate(-410.627 1145.268)" fill="none" stroke="#fff" stroke-linecap="round" stroke-miterlimit="10" stroke-width="1.701"/>
    <line id="Line_16" data-name="Line 16" x1="2.593" y2="3.901" transform="translate(-435.972 1183.39)" fill="none" stroke="#fff" stroke-linecap="round" stroke-miterlimit="10" stroke-width="1.701"/>
    <line id="Line_17" data-name="Line 17" x1="4.207" y2="2.059" transform="translate(-403.547 1155.188)" fill="none" stroke="#fff" stroke-linecap="round" stroke-miterlimit="10" stroke-width="1.701"/>
    <line id="Line_18" data-name="Line 18" x1="4.207" y2="2.059" transform="translate(-444.665 1175.312)" fill="none" stroke="#fff" stroke-linecap="round" stroke-miterlimit="10" stroke-width="1.701"/>
    <line id="Line_19" data-name="Line 19" x1="4.053" y1="2.349" transform="translate(-404.225 1176.581)" fill="none" stroke="#fff" stroke-linecap="round" stroke-miterlimit="10" stroke-width="1.701"/>
    <line id="Line_20" data-name="Line 20" x1="4.053" y1="2.349" transform="translate(-443.834 1153.629)" fill="none" stroke="#fff" stroke-linecap="round" stroke-miterlimit="10" stroke-width="1.701"/>
    <line id="Line_21" data-name="Line 21" x1="2.339" y1="4.058" transform="translate(-411.741 1184.08)" fill="none" stroke="#fff" stroke-linecap="round" stroke-miterlimit="10" stroke-width="1.701"/>
    <line id="Line_22" data-name="Line 22" x1="2.339" y1="4.058" transform="translate(-434.604 1144.42)" fill="none" stroke="#fff" stroke-linecap="round" stroke-miterlimit="10" stroke-width="1.701"/>
    <path id="Path_97" data-name="Path 97" d="M-444.383,1139.185v-4.857h-4.857" transform="translate(4.249 2.984)" fill="none" stroke="#fff" stroke-linecap="round" stroke-miterlimit="10" stroke-width="1.701"/>
    <text id="_24hr" data-name="24hr" transform="translate(-437.242 1170.297)" fill="#3e1c47" font-size="13" font-family="Montserrat-ExtraBoldItalic, Montserrat" font-weight="800" font-style="italic"><tspan x="0" y="0">24hr</tspan></text>
  </g>
</svg>
