<svg xmlns="http://www.w3.org/2000/svg" width="86.33" height="86.33" viewBox="0 0 86.33 86.33">
  <g id="Group_122" data-name="Group 122" transform="translate(-262.641 212.1)">
    <circle id="Ellipse_69" data-name="Ellipse 69" cx="43.165" cy="43.165" r="43.165" transform="translate(262.641 -212.1)" fill="#e40048"/>
    <path id="Path_144" data-name="Path 144" d="M309.457-123.936H290.576a2.048,2.048,0,0,1-2.048-2.048v-33.66a2.048,2.048,0,0,1,2.048-2.048h4.108" transform="translate(-11.242 -21.89)" fill="none" stroke="#fff" stroke-linecap="round" stroke-linejoin="round" stroke-width="2"/>
    <path id="Path_145" data-name="Path 145" d="M352.285-124.006h18.882a2.048,2.048,0,0,0,2.048-2.048v-33.66a2.048,2.048,0,0,0-2.048-2.048h-4.108" transform="translate(-38.929 -21.86)" fill="none" stroke="#fff" stroke-linecap="round" stroke-linejoin="round" stroke-width="2"/>
    <path id="Path_146" data-name="Path 146" d="M322.249-130.988c2.493-5.208,9.008-8.4,20.409-8.118a1.293,1.293,0,0,0,1.316-1.3v-34.878a1.3,1.3,0,0,0-1.286-1.3c-3.6-.022-13.95.5-20.439,6.741-6.488-6.245-16.836-6.763-20.438-6.741a1.3,1.3,0,0,0-1.286,1.3V-140.4a1.292,1.292,0,0,0,1.316,1.3C313.241-139.388,319.756-136.2,322.249-130.988Z" transform="translate(-16.451 -15.426)" fill="none" stroke="#fff" stroke-linecap="round" stroke-linejoin="round" stroke-width="2"/>
    <line id="Line_28" data-name="Line 28" y2="38.85" transform="translate(305.798 -185.263)" fill="none" stroke="#fff" stroke-linecap="round" stroke-linejoin="round" stroke-width="2"/>
    <path id="Path_147" data-name="Path 147" d="M324.052-164.495c-5.455-5.251-14.155-5.686-17.184-5.668a1.088,1.088,0,0,0-1.081,1.091v29.324a1.087,1.087,0,0,0,1.107,1.09c9.585-.237,15.063,2.446,17.159,6.825Z" transform="translate(-18.737 -18.212)" fill="#fff"/>
    <g id="Group_121" data-name="Group 121" transform="translate(291.227 -183.953)">
      <circle id="Ellipse_70" data-name="Ellipse 70" cx="2.344" cy="2.344" r="2.344" transform="translate(0.831 0)" fill="#e40048"/>
      <circle id="Ellipse_71" data-name="Ellipse 71" cx="1.172" cy="1.172" r="1.172" transform="translate(0 6.324)" fill="#e40048"/>
      <circle id="Ellipse_72" data-name="Ellipse 72" cx="0.771" cy="0.771" r="0.771" transform="translate(3.947 5.876)" fill="#e40048"/>
    </g>
    <path id="Path_148" data-name="Path 148" d="M364.337-159.6l-2.228-1.973a.44.44,0,0,0-.583,0L359.3-159.6a.44.44,0,0,1-.732-.329v-18.66a.44.44,0,0,1,.44-.44h5.621a.44.44,0,0,1,.44.44v18.66A.44.44,0,0,1,364.337-159.6Z" transform="translate(-41.657 -14.361)" fill="#3e1c47"/>
    <line id="Line_29" data-name="Line 29" x1="4.027" transform="translate(327.523 -176.09)" fill="none" stroke="#fff" stroke-linecap="round" stroke-linejoin="round" stroke-width="2"/>
    <line id="Line_30" data-name="Line 30" x1="4.027" transform="translate(327.523 -171.276)" fill="none" stroke="#fff" stroke-linecap="round" stroke-linejoin="round" stroke-width="2"/>
    <line id="Line_31" data-name="Line 31" x1="4.027" transform="translate(327.523 -166.463)" fill="none" stroke="#fff" stroke-linecap="round" stroke-linejoin="round" stroke-width="2"/>
    <line id="Line_32" data-name="Line 32" x1="4.027" transform="translate(327.523 -161.65)" fill="none" stroke="#fff" stroke-linecap="round" stroke-linejoin="round" stroke-width="2"/>
    <line id="Line_33" data-name="Line 33" x1="4.027" transform="translate(327.523 -156.837)" fill="none" stroke="#fff" stroke-linecap="round" stroke-linejoin="round" stroke-width="2"/>
    <line id="Line_34" data-name="Line 34" x1="19.864" transform="translate(311.686 -152.023)" fill="none" stroke="#fff" stroke-linecap="round" stroke-linejoin="round" stroke-width="2"/>
    <line id="Line_35" data-name="Line 35" x2="4.027" transform="translate(279.982 -176.09)" fill="none" stroke="#fff" stroke-linecap="round" stroke-linejoin="round" stroke-width="2"/>
    <line id="Line_36" data-name="Line 36" x2="4.027" transform="translate(279.982 -171.276)" fill="none" stroke="#fff" stroke-linecap="round" stroke-linejoin="round" stroke-width="2"/>
    <line id="Line_37" data-name="Line 37" x2="4.027" transform="translate(279.982 -166.463)" fill="none" stroke="#fff" stroke-linecap="round" stroke-linejoin="round" stroke-width="2"/>
    <line id="Line_38" data-name="Line 38" x2="4.027" transform="translate(279.982 -161.65)" fill="none" stroke="#fff" stroke-linecap="round" stroke-linejoin="round" stroke-width="2"/>
    <line id="Line_39" data-name="Line 39" x2="4.027" transform="translate(279.982 -156.837)" fill="none" stroke="#fff" stroke-linecap="round" stroke-linejoin="round" stroke-width="2"/>
    <line id="Line_40" data-name="Line 40" x2="19.864" transform="translate(279.982 -152.023)" fill="none" stroke="#fff" stroke-linecap="round" stroke-linejoin="round" stroke-width="2"/>
  </g>
</svg>
