<svg xmlns="http://www.w3.org/2000/svg" width="88" height="88" viewBox="0 0 88 88">
  <g id="Group_71" data-name="Group 71" transform="translate(-57.035 -1218.809)">
    <circle id="Ellipse_39" data-name="Ellipse 39" cx="44" cy="44" r="44" transform="translate(57.035 1218.809)" fill="#e30249"/>
    <rect id="Rectangle_39" data-name="Rectangle 39" width="50.216" height="50.216" rx="4.285" transform="translate(75.539 1237.946)" fill="none" stroke="#fff" stroke-linecap="round" stroke-miterlimit="10" stroke-width="1.486"/>
    <rect id="Rectangle_40" data-name="Rectangle 40" width="12.06" height="5.518" rx="2.01" transform="translate(79.794 1251.072)" fill="#3e1c47"/>
    <rect id="Rectangle_41" data-name="Rectangle 41" width="12.06" height="5.518" rx="2.01" transform="translate(94.96 1251.072)" fill="#3e1c47"/>
    <rect id="Rectangle_42" data-name="Rectangle 42" width="12.06" height="5.518" rx="2.01" transform="translate(110.126 1251.072)" fill="#3e1c47"/>
    <rect id="Rectangle_43" data-name="Rectangle 43" width="12.06" height="5.518" rx="2.01" transform="translate(79.794 1259.695)" fill="#3e1c47"/>
    <rect id="Rectangle_44" data-name="Rectangle 44" width="12.06" height="5.518" rx="2.01" transform="translate(94.96 1259.695)" fill="#3e1c47"/>
    <rect id="Rectangle_45" data-name="Rectangle 45" width="12.06" height="5.518" rx="2.01" transform="translate(110.126 1259.695)" fill="#3e1c47"/>
    <rect id="Rectangle_46" data-name="Rectangle 46" width="12.06" height="5.518" rx="2.01" transform="translate(79.794 1268.319)" fill="#3e1c47"/>
    <rect id="Rectangle_47" data-name="Rectangle 47" width="12.06" height="5.518" rx="2.01" transform="translate(94.96 1268.319)" fill="#3e1c47"/>
    <rect id="Rectangle_48" data-name="Rectangle 48" width="12.06" height="5.518" rx="2.01" transform="translate(110.126 1268.319)" fill="#3e1c47"/>
    <rect id="Rectangle_49" data-name="Rectangle 49" width="12.06" height="5.518" rx="2.01" transform="translate(79.794 1276.943)" fill="#3e1c47"/>
    <rect id="Rectangle_50" data-name="Rectangle 50" width="12.06" height="5.518" rx="2.01" transform="translate(94.96 1276.943)" fill="#3e1c47"/>
    <rect id="Rectangle_51" data-name="Rectangle 51" width="12.06" height="5.518" rx="2.01" transform="translate(110.126 1276.943)" fill="#3e1c47"/>
    <path id="Rectangle_52" data-name="Rectangle 52" d="M2.337,0H47.6a2.337,2.337,0,0,1,2.337,2.337V7.778a0,0,0,0,1,0,0H0a0,0,0,0,1,0,0V2.337A2.337,2.337,0,0,1,2.337,0Z" transform="translate(75.82 1238.225)" fill="#fff"/>
  </g>
</svg>
