<svg xmlns="http://www.w3.org/2000/svg" width="24" height="24" viewBox="0 0 24 24">
  <g id="Group_217" data-name="Group 217" transform="translate(-433 -2056)">
    <rect id="Rectangle_222" data-name="Rectangle 222" width="24" height="24" transform="translate(433 2056)" fill="#e30249"/>
    <rect id="Rectangle_223" data-name="Rectangle 223" width="5" height="2" transform="translate(436 2063)" fill="#fff"/>
    <rect id="Rectangle_228" data-name="Rectangle 228" width="5" height="2" transform="translate(436 2066)" fill="#fff"/>
    <rect id="Rectangle_231" data-name="Rectangle 231" width="5" height="2" transform="translate(436 2069)" fill="#fff"/>
    <rect id="Rectangle_234" data-name="Rectangle 234" width="5" height="2" transform="translate(436 2072)" fill="#fff"/>
    <rect id="Rectangle_237" data-name="Rectangle 237" width="5" height="2" transform="translate(436 2075)" fill="#fff"/>
    <rect id="Rectangle_224" data-name="Rectangle 224" width="5" height="2" transform="translate(442 2063)" fill="#fff"/>
    <rect id="Rectangle_227" data-name="Rectangle 227" width="5" height="2" transform="translate(442 2066)" fill="#fff"/>
    <rect id="Rectangle_230" data-name="Rectangle 230" width="5" height="2" transform="translate(442 2069)" fill="#fff"/>
    <rect id="Rectangle_233" data-name="Rectangle 233" width="5" height="2" transform="translate(442 2072)" fill="#fff"/>
    <rect id="Rectangle_236" data-name="Rectangle 236" width="5" height="2" transform="translate(442 2075)" fill="#fff"/>
    <rect id="Rectangle_225" data-name="Rectangle 225" width="5" height="2" transform="translate(448 2063)" fill="#fff"/>
    <rect id="Rectangle_226" data-name="Rectangle 226" width="5" height="2" transform="translate(448 2066)" fill="#fff"/>
    <rect id="Rectangle_229" data-name="Rectangle 229" width="5" height="2" transform="translate(448 2069)" fill="#fff"/>
    <rect id="Rectangle_232" data-name="Rectangle 232" width="5" height="2" transform="translate(448 2072)" fill="#fff"/>
    <rect id="Rectangle_235" data-name="Rectangle 235" width="5" height="2" transform="translate(448 2075)" fill="#fff"/>
  </g>
</svg>
