<svg xmlns="http://www.w3.org/2000/svg" width="92.843" height="77.224" viewBox="0 0 92.843 77.224">
  <g id="Group_236" data-name="Group 236" transform="translate(-37.284 -39.922)">
    <path id="Path_199" data-name="Path 199" d="M68.671,91.788a9.632,9.632,0,1,0-14.334,0,15.582,15.582,0,0,0-8.426,13.839H77.1A15.581,15.581,0,0,0,68.671,91.788Z" transform="translate(0.002 0.004)" fill="#fff"/>
    <rect id="Rectangle_200" data-name="Rectangle 200" width="90.843" height="60.562" rx="5.966" transform="translate(38.284 55.584)" fill="none" stroke="#fff" stroke-linejoin="round" stroke-width="2"/>
    <line id="Line_123" data-name="Line 123" x2="36.214" transform="translate(83.345 77.869)" fill="none" stroke="#fff" stroke-linecap="round" stroke-linejoin="round" stroke-width="2"/>
    <line id="Line_124" data-name="Line 124" x2="36.214" transform="translate(83.345 86.25)" fill="none" stroke="#fff" stroke-linecap="round" stroke-linejoin="round" stroke-width="2"/>
    <line id="Line_125" data-name="Line 125" x2="36.214" transform="translate(83.345 94.631)" fill="none" stroke="#fff" stroke-linecap="round" stroke-linejoin="round" stroke-width="2"/>
    <line id="Line_126" data-name="Line 126" x2="22.819" transform="translate(83.345 103.013)" fill="none" stroke="#fff" stroke-linecap="round" stroke-linejoin="round" stroke-width="2"/>
    <rect id="Rectangle_201" data-name="Rectangle 201" width="10.922" height="21.355" transform="translate(77.884 39.922)" fill="#e40048"/>
    <line id="Line_127" data-name="Line 127" x2="14.393" transform="translate(76.149 62.192)" fill="none" stroke="#fff" stroke-linecap="round" stroke-linejoin="round" stroke-width="2"/>
    <g id="Group_205" data-name="Group 205" transform="translate(48.014 64.761)">
      <circle id="Ellipse_145" data-name="Ellipse 145" cx="1.129" cy="1.129" r="1.129" transform="translate(5.08)" fill="#fff"/>
      <circle id="Ellipse_146" data-name="Ellipse 146" cx="1.829" cy="1.829" r="1.829" transform="translate(0 1.86)" fill="#fff"/>
    </g>
  </g>
</svg>
