<svg xmlns="http://www.w3.org/2000/svg" xmlns:xlink="http://www.w3.org/1999/xlink" width="87" height="87" viewBox="0 0 87 87">
  <defs>
    <clipPath id="clip-path">
      <circle id="Ellipse_117" data-name="Ellipse 117" cx="43.5" cy="43.5" r="43.5" fill="none"/>
    </clipPath>
  </defs>
  <g id="Group_175" data-name="Group 175" transform="translate(-238.314 -667.633)">
    <circle id="Ellipse_111" data-name="Ellipse 111" cx="43.5" cy="43.5" r="43.5" transform="translate(238.314 667.633)" fill="#e40048"/>
    <g id="Group_174" data-name="Group 174" transform="translate(238.314 667.633)">
      <g id="Group_173" data-name="Group 173" clip-path="url(#clip-path)">
        <g id="Group_172" data-name="Group 172" transform="translate(5.085 17.75)">
          <path id="Path_181" data-name="Path 181" d="M258.283,736.031H278.64l13.011-37.057H263.336a4.686,4.686,0,0,0-3.314,8,4.641,4.641,0,0,0,3.314,1.375h6.818a2.237,2.237,0,0,1,2.23,2.23,2.228,2.228,0,0,1-2.23,2.23H251.921a4.692,4.692,0,0,0,0,9.385h10.6a2.237,2.237,0,0,1,2.23,2.23,2.233,2.233,0,0,1-2.23,2.23h-4.242a4.688,4.688,0,0,0,0,9.376Z" transform="translate(-247.233 -698.855)" fill="#fff"/>
          <path id="Path_182" data-name="Path 182" d="M320.818,779.792v-7.242a2.481,2.481,0,0,1,2.481-2.481h5.145a2.481,2.481,0,0,0,2.481-2.481V757.022" transform="translate(-278.865 -723.808)" fill="none" stroke="#fff" stroke-linecap="round" stroke-miterlimit="10" stroke-width="2"/>
          <path id="Path_183" data-name="Path 183" d="M308.039,737.665h33.33a1.685,1.685,0,0,0,1.586-2.255l-11.448-31.846a7.25,7.25,0,0,0-13.648.007l-11.407,31.841A1.686,1.686,0,0,0,308.039,737.665Z" transform="translate(-272.647 -698.766)" fill="none" stroke="#fff" stroke-linecap="round" stroke-miterlimit="10" stroke-width="2"/>
          <rect id="Rectangle_135" data-name="Rectangle 135" width="8.459" height="33.992" rx="3.454" transform="translate(37.856 55.984)" fill="#3e1c47"/>
          <circle id="Ellipse_112" data-name="Ellipse 112" cx="1.733" cy="1.733" r="1.733" transform="translate(29.316 2.526)" fill="#e40048"/>
          <circle id="Ellipse_113" data-name="Ellipse 113" cx="1.043" cy="1.043" r="1.043" transform="translate(33.607 6.649)" fill="#e40048"/>
          <circle id="Ellipse_114" data-name="Ellipse 114" cx="1.043" cy="1.043" r="1.043" transform="translate(12.346 32.552)" fill="#e40048"/>
          <circle id="Ellipse_115" data-name="Ellipse 115" cx="0.558" cy="0.558" r="0.558" transform="translate(30.491 7.692)" fill="#e40048"/>
          <circle id="Ellipse_116" data-name="Ellipse 116" cx="0.558" cy="0.558" r="0.558" transform="translate(15.397 30.759)" fill="#e40048"/>
          <line id="Line_114" data-name="Line 114" y1="16.558" transform="translate(52.058 8.808)" fill="none" stroke="#fff" stroke-linecap="round" stroke-miterlimit="10" stroke-width="2"/>
        </g>
      </g>
    </g>
  </g>
</svg>
