<svg xmlns="http://www.w3.org/2000/svg" xmlns:xlink="http://www.w3.org/1999/xlink" width="152.597" height="152.596" viewBox="0 0 152.597 152.596">
  <defs>
    <clipPath id="clip-path">
      <circle id="Ellipse_29" data-name="Ellipse 29" cx="76.298" cy="76.298" r="76.298" transform="translate(430.997 393.817)" fill="none"/>
    </clipPath>
  </defs>
  <g id="Group_39" data-name="Group 39" transform="translate(-430.997 -393.817)">
    <circle id="Ellipse_28" data-name="Ellipse 28" cx="76.298" cy="76.298" r="76.298" transform="translate(430.997 393.817)" fill="#e30249"/>
    <g id="Group_38" data-name="Group 38">
      <g id="Group_37" data-name="Group 37" clip-path="url(#clip-path)">
        <g id="Group_36" data-name="Group 36">
          <g id="Group_34" data-name="Group 34">
            <path id="Path_76" data-name="Path 76" d="M467.291,498.877v-2.822l-3-1.5v2.822Z" fill="#fff"/>
            <path id="Path_77" data-name="Path 77" d="M464.291,488.919v2.822l3,1.5v-2.822Z" fill="#fff"/>
            <path id="Path_78" data-name="Path 78" d="M453.091,518.284H441.683l-.47,3.42h10.168Z" fill="#fff"/>
            <path id="Path_79" data-name="Path 79" d="M541.891,494.065V478.614l-3.01-.04V492.56Z" fill="#fff"/>
            <path id="Path_80" data-name="Path 80" d="M508.8,521.7h2.8l1.5-3.01h-2.8Z" fill="#fff"/>
            <path id="Path_81" data-name="Path 81" d="M538.881,495.375v17.779a5.546,5.546,0,0,1-5.54,5.54H515.919l-1.505,3.01h20.077a7.409,7.409,0,0,0,7.4-7.4V496.88Z" fill="#fff"/>
            <path id="Path_82" data-name="Path 82" d="M507.491,518.694h-5.86a5.548,5.548,0,0,1-5.55-5.54V481.543l-3-1.5V514.3a7.407,7.407,0,0,0,7.39,7.4h5.514Z" fill="#fff"/>
            <path id="Path_83" data-name="Path 83" d="M493.081,477.228l3,1.5v-5.684a15.712,15.712,0,0,0-15.69-15.7h-.41a15.712,15.712,0,0,0-15.69,15.7V486.1l3,1.5v-14.27a12.9,12.9,0,0,1,25.79,0Z" fill="#fff"/>
            <path id="Path_84" data-name="Path 84" d="M464.291,500.192v12.172a5.928,5.928,0,0,1-5.93,5.92h-2.455l-1.71,3.42h5.7a7.407,7.407,0,0,0,7.39-7.4V501.692Z" fill="#fff"/>
          </g>
          <g id="Group_35" data-name="Group 35">
            <path id="Rectangle_33" data-name="Rectangle 33" d="M4.213,0h0A4.213,4.213,0,0,1,8.425,4.213V28.051a0,0,0,0,1,0,0H0a0,0,0,0,1,0,0V4.213A4.213,4.213,0,0,1,4.213,0Z" transform="translate(524.804 420.196)" fill="none" stroke="#fff" stroke-miterlimit="10" stroke-width="2"/>
            <path id="Rectangle_34" data-name="Rectangle 34" d="M4.213,0h0A4.213,4.213,0,0,1,8.425,4.213V28.051a0,0,0,0,1,0,0H0a0,0,0,0,1,0,0V4.213A4.213,4.213,0,0,1,4.213,0Z" transform="translate(546.908 420.196)" fill="none" stroke="#fff" stroke-miterlimit="10" stroke-width="2"/>
          </g>
          <path id="Path_85" data-name="Path 85" d="M535.958,475.811v37.365a2.792,2.792,0,0,1-2.792,2.792H501.452a2.792,2.792,0,0,1-2.792-2.792V473.067a18.447,18.447,0,0,0-18.446-18.446h-.406a18.447,18.447,0,0,0-18.446,18.446v39.324a3.172,3.172,0,0,1-3.171,3.172H442.916" fill="none" stroke="#fff" stroke-miterlimit="10" stroke-width="2"/>
          <path id="Path_86" data-name="Path 86" d="M544.464,477.023v37.308a10.143,10.143,0,0,1-10.143,10.143H500.3a10.143,10.143,0,0,1-10.143-10.143V473.358a10.143,10.143,0,0,0-10.143-10.143h0a10.143,10.143,0,0,0-10.143,10.143v40.973a10.143,10.143,0,0,1-10.143,10.143H441.683" fill="none" stroke="#fff" stroke-miterlimit="10" stroke-width="2"/>
          <path id="Path_87" data-name="Path 87" d="M564.068,455.072a24,24,0,0,1-48,0V445.89h48Z" fill="#3e1c47"/>
        </g>
      </g>
    </g>
  </g>
</svg>
