<svg xmlns="http://www.w3.org/2000/svg" width="166.118" height="88.304" viewBox="0 0 166.118 88.304">
  <g id="Group_234" data-name="Group 234" transform="translate(10021.408 -328.965)">
    <path id="Path_210" data-name="Path 210" d="M-9004.837,958.112h7.451a1,1,0,0,0,.968-1.233l-8.075-32.83-.049-.2h0l-.184-.747a.886.886,0,0,0-.776-.671h-4.532l-21.166,47.943h.289a1.667,1.667,0,0,0,1.482-.9l7.977-17.628c5.012.021,11.535.032,14.306.036l1.342,5.472A1,1,0,0,0-9004.837,958.112Zm-13.3-13.58,5.962-13.173,3.23,13.173Z" transform="translate(-923.05 -553.219)" fill="#3e1c47"/>
    <path id="Path_211" data-name="Path 211" d="M-9991.107,344.063a1.6,1.6,0,0,0,1.007-.354,1.555,1.555,0,0,0,.582-.911l1.153-5.11a1,1,0,0,0-.171-.911,1.045,1.045,0,0,0-.848-.354h-23.023a1.5,1.5,0,0,0-.982.354,1.6,1.6,0,0,0-.558.911l-7.422,32.884a1.051,1.051,0,0,0,.146.911.968.968,0,0,0,.822.354h6.321a1.5,1.5,0,0,0,.982-.354,1.6,1.6,0,0,0,.557-.911l2.581-11.434h14.445a1.561,1.561,0,0,0,1.014-.379,1.592,1.592,0,0,0,.576-.885l1.143-5.059a1.078,1.078,0,0,0-.166-.936,1,1,0,0,0-.841-.38h-14.447l1.68-7.437Z" transform="translate(0.001 -6.953)" fill="#e30249"/>
    <path id="Path_212" data-name="Path 212" d="M-9564.222,371.483a1.6,1.6,0,0,0,.557-.911l7.422-32.884a1.052,1.052,0,0,0-.146-.911.972.972,0,0,0-.822-.354h-6.722a1.509,1.509,0,0,0-.983.354,1.6,1.6,0,0,0-.556.911l-7.423,32.884a1.044,1.044,0,0,0,.146.911.964.964,0,0,0,.822.354h6.721A1.5,1.5,0,0,0-9564.222,371.483Z" transform="translate(-418.057 -6.953)" fill="#e30249"/>
    <path id="Path_213" data-name="Path 213" d="M-9364.855,371.429a.968.968,0,0,0,.823.354h6.47a1.5,1.5,0,0,0,.982-.354,1.6,1.6,0,0,0,.557-.911l2.535-11.231h5.167l3.206,11.13a2.831,2.831,0,0,0,.452.885,1.492,1.492,0,0,0,1.3.481h6.621a1.32,1.32,0,0,0,.852-.329,1.336,1.336,0,0,0,.492-.734,1.163,1.163,0,0,0-.026-.557l-4.112-12.445a14.95,14.95,0,0,0,5.385-3.743,12.966,12.966,0,0,0,3.1-6.071q1.245-5.514-1.812-8.525t-9.528-3.01h-13.645a1.5,1.5,0,0,0-.981.354,1.6,1.6,0,0,0-.558.911L-9365,370.519A1.047,1.047,0,0,0-9364.855,371.429ZM-9349.9,343.4h5.818q2.458,0,3.313,1.214a3.868,3.868,0,0,1,.409,3.187,5.506,5.506,0,0,1-1.9,3.187,5.862,5.862,0,0,1-3.8,1.164h-5.818Z" transform="translate(-611.851 -6.903)" fill="#e30249"/>
    <path id="Path_214" data-name="Path 214" d="M-9128.916,1629.208h.119a.857.857,0,0,1-.121-.009Z" transform="translate(-831.96 -1212.05)" fill="#e30249"/>
    <path id="Path_215" data-name="Path 215" d="M-9085.4,922.434h-1.316l-21.166,47.943h1.3Z" transform="translate(-851.571 -553.219)" fill="#3e1c47"/>
    <path id="Path_216" data-name="Path 216" d="M-9449.088,922.381h0l.026-.062h-.3a1.671,1.671,0,0,0-1.483.9l-15.579,35.4-4.675-14.036a16.389,16.389,0,0,0,6.928-4.454c.017-.016.031-.035.048-.051a13.071,13.071,0,0,0,3.126-6.125q1.257-5.566-1.825-8.6t-9.616-3.037H-9486.2a1.528,1.528,0,0,0-.878.267,1.63,1.63,0,0,0-.68,1.008l-7.4,33.138a1.067,1.067,0,0,0,.146.92.983.983,0,0,0,.832.358h6.529a1.523,1.523,0,0,0,.992-.358,1.615,1.615,0,0,0,.562-.92l2.473-11.286h3.7l8,24.043a1.141,1.141,0,0,0,1.082.78h.484l0-.009a.909.909,0,0,0,.121.009Zm-25.348,35.651.794-1.542,3.513,10.554-.743,1.689Zm5.051,7.323-3.466-10.407.79-1.533,3.415,10.26Zm1.478-3.359-3.366-10.114.788-1.533,3.318,9.967Zm-12.107-32.58h5.872q2.481,0,3.344,1.224a3.907,3.907,0,0,1,.412,3.217,5.564,5.564,0,0,1-1.913,3.217,5.923,5.923,0,0,1-3.836,1.174h-5.872Z" transform="translate(-490.515 -553.112)" fill="#3e1c47"/>
    <path id="Path_217" data-name="Path 217" d="M-9047.008,922.434h-1.311l-21.166,47.943h1.3Z" transform="translate(-887.363 -553.219)" fill="#3e1c47"/>
    <path id="Path_218" data-name="Path 218" d="M-8900.781,1507.548a.438.438,0,0,0-.363-.163h-.525a.594.594,0,0,0-.49.263l-3.077,4.183-1.275-4.1a.447.447,0,0,0-.142-.224.473.473,0,0,0-.331-.117h-.534a.556.556,0,0,0-.36.125.553.553,0,0,0-.193.328l-1.537,7.279a.428.428,0,0,0,.09.382.438.438,0,0,0,.352.156h.513a.529.529,0,0,0,.35-.13.542.542,0,0,0,.181-.313l1-4.747.893,2.916a.578.578,0,0,0,.179.285.539.539,0,0,0,.358.117h.323a.731.731,0,0,0,.591-.331l1.949-2.659-.92,4.324a.43.43,0,0,0,.089.382.446.446,0,0,0,.353.156h.513a.552.552,0,0,0,.35-.125.545.545,0,0,0,.192-.318l1.551-7.283A.472.472,0,0,0-8900.781,1507.548Z" transform="translate(-1036.383 -1098.498)" fill="#e30249"/>
    <path id="Path_219" data-name="Path 219" d="M-8777.531,1507.833a.5.5,0,0,0-.532-.448h-.8a.694.694,0,0,0-.6.359l-4.311,7.225a.537.537,0,0,0-.058.239.447.447,0,0,0,.117.309.429.429,0,0,0,.33.138h.567a.579.579,0,0,0,.513-.3l.912-1.492h3.352l.264,1.355a.544.544,0,0,0,.161.316.5.5,0,0,0,.349.123h.523a.445.445,0,0,0,.379-.192.6.6,0,0,0,.076-.428Zm-3.073,4.633,1.836-3.094.525,3.094Z" transform="translate(-1153.636 -1098.498)" fill="#e30249"/>
    <path id="Path_220" data-name="Path 220" d="M-8653.118,1507.385h-.558a.542.542,0,0,0-.349.125.5.5,0,0,0-.186.328l-1.558,7.279a.449.449,0,0,0,.078.374.434.434,0,0,0,.354.164h.568a.524.524,0,0,0,.349-.13.554.554,0,0,0,.183-.313l1.559-7.288,0-.026a.488.488,0,0,0-.092-.351A.427.427,0,0,0-8653.118,1507.385Z" transform="translate(-1273.011 -1098.498)" fill="#e30249"/>
    <path id="Path_221" data-name="Path 221" d="M-8597.143,1507.385h-.5a.542.542,0,0,0-.361.13.558.558,0,0,0-.181.323l-1.062,4.989-2.243-5.131a.464.464,0,0,0-.466-.312h-.479a.526.526,0,0,0-.35.13.551.551,0,0,0-.181.324l-1.539,7.279a.447.447,0,0,0,.078.374.433.433,0,0,0,.354.164h.513a.55.55,0,0,0,.349-.125.545.545,0,0,0,.193-.318l1.052-4.948,2.245,5.092a.482.482,0,0,0,.462.3h.479a.529.529,0,0,0,.35-.13.556.556,0,0,0,.182-.324l1.538-7.273a.477.477,0,0,0-.065-.371A.419.419,0,0,0-8597.143,1507.385Z" transform="translate(-1320.797 -1098.498)" fill="#e30249"/>
    <path id="Path_222" data-name="Path 222" d="M-8466.589,1508.375l.1-.446a.463.463,0,0,0-.079-.38.436.436,0,0,0-.364-.164h-5.337a.546.546,0,0,0-.362.13.551.551,0,0,0-.18.325l-.091.436a.45.45,0,0,0,.077.373.436.436,0,0,0,.354.165h1.86l-1.345,6.3a.442.442,0,0,0,.078.374.434.434,0,0,0,.354.164h.546a.524.524,0,0,0,.349-.13.542.542,0,0,0,.183-.312l1.375-6.4h1.95a.528.528,0,0,0,.349-.13A.541.541,0,0,0-8466.589,1508.375Z" transform="translate(-1443.477 -1098.498)" fill="#e30249"/>
    <path id="Path_223" data-name="Path 223" d="M-8376.528,1507.385h-4.579a.545.545,0,0,0-.349.125.537.537,0,0,0-.193.329l-1.538,7.278a.449.449,0,0,0,.077.374.433.433,0,0,0,.354.164h4.669a.544.544,0,0,0,.349-.125.538.538,0,0,0,.193-.321l.079-.4a.459.459,0,0,0-.079-.381.431.431,0,0,0-.353-.164h-3.6l.446-2.1h3.364a.541.541,0,0,0,.36-.129.55.55,0,0,0,.182-.315l.079-.385a.463.463,0,0,0-.079-.38.422.422,0,0,0-.353-.164h-3.264l.434-2.015h3.609a.563.563,0,0,0,.343-.114.524.524,0,0,0,.2-.321l.078-.4a.476.476,0,0,0-.065-.371A.417.417,0,0,0-8376.528,1507.385Z" transform="translate(-1527.104 -1098.498)" fill="#e30249"/>
    <path id="Path_224" data-name="Path 224" d="M-8269.648,1507.559a.418.418,0,0,0-.366-.174h-.5a.544.544,0,0,0-.362.13.546.546,0,0,0-.18.323l-1.063,4.989-2.24-5.131a.468.468,0,0,0-.468-.311h-.479a.524.524,0,0,0-.35.13.551.551,0,0,0-.182.323l-1.539,7.279a.454.454,0,0,0,.078.374.435.435,0,0,0,.354.164h.512a.549.549,0,0,0,.35-.125.55.55,0,0,0,.193-.317l1.052-4.948,2.245,5.092a.48.48,0,0,0,.461.3h.48a.521.521,0,0,0,.348-.13.547.547,0,0,0,.183-.324l1.539-7.273A.478.478,0,0,0-8269.648,1507.559Z" transform="translate(-1625.737 -1098.498)" fill="#e30249"/>
    <path id="Path_225" data-name="Path 225" d="M-8161.56,1507.833a.5.5,0,0,0-.534-.448h-.8a.694.694,0,0,0-.6.359l-4.31,7.225a.525.525,0,0,0-.058.239.451.451,0,0,0,.117.309.431.431,0,0,0,.33.138h.568a.581.581,0,0,0,.513-.3l.912-1.492h3.351l.263,1.355a.543.543,0,0,0,.162.316.5.5,0,0,0,.348.123h.524a.443.443,0,0,0,.378-.192.6.6,0,0,0,.077-.428Zm-3.074,4.633,1.836-3.094.525,3.094Z" transform="translate(-1727.831 -1098.498)" fill="#e30249"/>
    <path id="Path_226" data-name="Path 226" d="M-8032.27,1507.385h-.5a.542.542,0,0,0-.361.13.555.555,0,0,0-.181.323l-1.062,4.989-2.242-5.131a.465.465,0,0,0-.466-.312h-.479a.526.526,0,0,0-.35.13.553.553,0,0,0-.181.323l-1.539,7.279a.447.447,0,0,0,.078.374.433.433,0,0,0,.353.164h.513a.55.55,0,0,0,.349-.125.547.547,0,0,0,.193-.318l1.052-4.948,2.245,5.092a.481.481,0,0,0,.462.3h.479a.524.524,0,0,0,.349-.13.551.551,0,0,0,.182-.324l1.539-7.273a.483.483,0,0,0-.065-.371A.42.42,0,0,0-8032.27,1507.385Z" transform="translate(-1847.359 -1098.498)" fill="#e30249"/>
    <path id="Path_227" data-name="Path 227" d="M-7909.708,1506.039a3.836,3.836,0,0,0-1.6-.3,3.675,3.675,0,0,0-2.536.862,4.535,4.535,0,0,0-1.325,2.337c-.194.788-.338,1.462-.427,2a4.228,4.228,0,0,0-.07.744,2.433,2.433,0,0,0,.745,1.872,3.007,3.007,0,0,0,2.109.681,3.825,3.825,0,0,0,2.519-.768,3.749,3.749,0,0,0,1.225-1.878.387.387,0,0,0-.071-.394.43.43,0,0,0-.33-.138h-.591a.521.521,0,0,0-.327.1.667.667,0,0,0-.2.283,2.217,2.217,0,0,1-.866,1.082,2.609,2.609,0,0,1-1.325.314c-.924,0-1.336-.381-1.336-1.236a3.56,3.56,0,0,1,.063-.639c.11-.623.244-1.247.4-1.858a2.675,2.675,0,0,1,.844-1.505,2.23,2.23,0,0,1,1.457-.477c1.277,0,1.425.629,1.425,1.1a1.63,1.63,0,0,1-.011.2.462.462,0,0,0,.118.351.5.5,0,0,0,.374.14h.59a.446.446,0,0,0,.455-.419,2.626,2.626,0,0,0,.037-.44,2.159,2.159,0,0,0-.338-1.179A2.288,2.288,0,0,0-7909.708,1506.039Z" transform="translate(-1962.93 -1096.963)" fill="#e30249"/>
    <path id="Path_228" data-name="Path 228" d="M-7796.376,1507.385h-4.58a.548.548,0,0,0-.349.125.542.542,0,0,0-.193.329l-1.538,7.278a.444.444,0,0,0,.077.374.433.433,0,0,0,.354.164h4.669a.548.548,0,0,0,.349-.125.552.552,0,0,0,.195-.322l.078-.4a.469.469,0,0,0-.078-.381.435.435,0,0,0-.354-.164h-3.6l.446-2.1h3.365a.539.539,0,0,0,.359-.129.546.546,0,0,0,.183-.315l.079-.385a.465.465,0,0,0-.079-.38.425.425,0,0,0-.353-.164h-3.264l.434-2.015h3.61a.557.557,0,0,0,.342-.114.519.519,0,0,0,.2-.321l.079-.4a.481.481,0,0,0-.066-.371A.423.423,0,0,0-7796.376,1507.385Z" transform="translate(-2067.908 -1098.498)" fill="#e30249"/>
    <path id="Path_229" data-name="Path 229" d="M-8859.158,357.194a9.727,9.727,0,0,1-4.594.911,7.8,7.8,0,0,1-2.838-.43,3.891,3.891,0,0,1-1.65-1.138,4.418,4.418,0,0,1-.8-1.467,2.016,2.016,0,0,0-.529-.658,1.644,1.644,0,0,0-1.02-.253h-6.32a1.319,1.319,0,0,0-.852.329,1.325,1.325,0,0,0-.492.734,7.573,7.573,0,0,0,.688,4.958,8.636,8.636,0,0,0,4.164,3.769,18.592,18.592,0,0,0,8,1.442,24.146,24.146,0,0,0,8.121-1.315,16.3,16.3,0,0,0,6.2-3.82,12,12,0,0,0,3.273-5.944,8.543,8.543,0,0,0-.145-5.135,6.717,6.717,0,0,0-3.359-3.339,26.877,26.877,0,0,0-6.889-2.15,32.433,32.433,0,0,1-4.074-1.164,4,4,0,0,1-1.961-1.315,2.19,2.19,0,0,1-.277-1.771,3.506,3.506,0,0,1,1.771-2.4,7.358,7.358,0,0,1,3.611-.784,5.107,5.107,0,0,1,3.148.835,2.574,2.574,0,0,1,1.139,1.948,1.333,1.333,0,0,0,.555.658,1.814,1.814,0,0,0,.908.2h6.621a1.223,1.223,0,0,0,.826-.329,1.388,1.388,0,0,0,.467-.734,6.586,6.586,0,0,0-.23-3.314,8.356,8.356,0,0,0-2.008-3.213,10.374,10.374,0,0,0-3.891-2.428,16.843,16.843,0,0,0-5.891-.91,20.541,20.541,0,0,0-7.682,1.366,15.633,15.633,0,0,0-5.7,3.794,11.746,11.746,0,0,0-2.975,5.515,8.3,8.3,0,0,0,.223,5.236,7.178,7.178,0,0,0,3.322,3.39,23.578,23.578,0,0,0,6.023,2.1,38.138,38.138,0,0,1,4.471,1.189,5.443,5.443,0,0,1,2.287,1.315,1.994,1.994,0,0,1,.385,1.846A3.736,3.736,0,0,1-8859.158,357.194Z" transform="translate(-1065.492)" fill="#e30249"/>
    <path id="Path_230" data-name="Path 230" d="M-8354.7,344.367h8.928l-5.914,26.206a1.044,1.044,0,0,0,.146.911.967.967,0,0,0,.822.354h6.621a1.505,1.505,0,0,0,.982-.354,1.606,1.606,0,0,0,.557-.911l5.915-26.206h8.929a1.467,1.467,0,0,0,.988-.379,1.638,1.638,0,0,0,.551-.885l1.223-5.413a1.061,1.061,0,0,0-.146-.911.975.975,0,0,0-.823-.354h-26.986a1.506,1.506,0,0,0-.982.354,1.6,1.6,0,0,0-.556.911l-1.222,5.413a1.065,1.065,0,0,0,.149.885A.931.931,0,0,0-8354.7,344.367Z" transform="translate(-1552.732 -6.953)" fill="#e30249"/>
    <path id="Path_231" data-name="Path 231" d="M-8035.995,922.676a.981.981,0,0,0-.83-.357h-23.638a1.519,1.519,0,0,0-.992.357,1.617,1.617,0,0,0-.562.919l-7.49,33.184a1.058,1.058,0,0,0,.147.919.978.978,0,0,0,.83.357h24.044a1.517,1.517,0,0,0,.991-.357,1.617,1.617,0,0,0,.562-.919l1.083-4.8a1.064,1.064,0,0,0-.147-.919.981.981,0,0,0-.83-.358h-16.552l1.6-7.1h15.033a1.48,1.48,0,0,0,1-.383,1.653,1.653,0,0,0,.556-.894l1-4.442a1.142,1.142,0,0,0-.141-.944.938.938,0,0,0-.824-.383h-15.034l1.556-6.892h16.146a1.517,1.517,0,0,0,.991-.358,1.615,1.615,0,0,0,.562-.919l1.083-4.8A1.063,1.063,0,0,0-8035.995,922.676Z" transform="translate(-1819.483 -553.112)" fill="#3e1c47"/>
    <path id="Path_232" data-name="Path 232" d="M-8490.648,930.46h9.139l-5.978,26.482a1.064,1.064,0,0,0,.147.92.979.979,0,0,0,.832.358h6.573a1.518,1.518,0,0,0,.993-.358,1.615,1.615,0,0,0,.563-.92l5.978-26.482h9.022a1.484,1.484,0,0,0,1-.383,1.657,1.657,0,0,0,.557-.895l1.235-5.47a1.068,1.068,0,0,0-.147-.92.982.982,0,0,0-.832-.358h-27.269a1.523,1.523,0,0,0-.994.358,1.623,1.623,0,0,0-.562.92l-1.234,5.47a1.076,1.076,0,0,0,.152.895A.939.939,0,0,0-8490.648,930.46Z" transform="translate(-1425.996 -553.219)" fill="#3e1c47"/>
  </g>
</svg>
