<svg xmlns="http://www.w3.org/2000/svg" width="115.48" height="51.564" viewBox="0 0 115.48 51.564">
  <g id="Group_21" data-name="Group 21" transform="translate(-1640.981 -1170.245)">
    <path id="Path_43" data-name="Path 43" d="M2817.684,1263.941l17.68-40.044,0-.02-17.677,40.062Z" transform="translate(-1111.736 -50.671)" fill="none"/>
    <path id="Path_44" data-name="Path 44" d="M3129.862,1400.783v0l-1.812,4.107Z" transform="translate(-1404.967 -217.808)" fill="none"/>
    <path id="Path_45" data-name="Path 45" d="M2838.749,1351.32l17.146-38.838v-.01l-17.151,38.83Z" transform="translate(-1131.633 -134.375)" fill="none"/>
    <path id="Path_46" data-name="Path 46" d="M2506.943,1317.779a5.957,5.957,0,0,0,2.051-3.447,4.187,4.187,0,0,0-.441-3.447q-.925-1.312-3.582-1.311h-6.292l-2.136,9.463h6.292A6.34,6.34,0,0,0,2506.943,1317.779Z" transform="translate(-808.325 -131.636)" fill="none"/>
    <path id="Path_47" data-name="Path 47" d="M2898.749,1171.848h-10.355a1.692,1.692,0,0,0-1.5.9l-9.332,17.673-2.283-18.067a.507.507,0,0,0-.507-.51h-.962l-5.577,12.64v0l-1.812,4.105-15.289,34.63h.309a1.787,1.787,0,0,0,1.588-.969l15.52-35.333,2.034,15.64a.83.83,0,0,0,.829.832h7.788l0-.013a2.551,2.551,0,0,0,2-1.347l8.291-15.7v22.774a1.052,1.052,0,0,0,1.053,1.052h8.2a1.052,1.052,0,0,0,1.052-1.052V1172.9A1.052,1.052,0,0,0,2898.749,1171.848Z" transform="translate(-1143.34 -1.514)" fill="#e30249"/>
    <path id="Path_48" data-name="Path 48" d="M1673.662,1180.1a1.728,1.728,0,0,0,1.087-.382,1.673,1.673,0,0,0,.627-.982l1.244-5.511a1.082,1.082,0,0,0-.184-.982,1.129,1.129,0,0,0-.915-.382H1650.69a1.626,1.626,0,0,0-1.06.382,1.727,1.727,0,0,0-.6.982l-8.006,35.467a1.132,1.132,0,0,0,.157.982,1.045,1.045,0,0,0,.888.382h6.816a1.624,1.624,0,0,0,1.06-.382,1.727,1.727,0,0,0,.6-.982l2.784-12.332h15.581a1.684,1.684,0,0,0,1.093-.409,1.715,1.715,0,0,0,.621-.955l1.232-5.457a1.162,1.162,0,0,0-.178-1.009,1.074,1.074,0,0,0-.908-.409h-15.581L1657,1180.1Z" transform="translate(0 -1.528)" fill="#e30249"/>
    <path id="Path_49" data-name="Path 49" d="M2265.851,1223.04l.636-1.447-3.817-11.466.849-1.652,3.765,11.308.8-1.81-3.712-11.15.844-1.643,3.66,10.993.792-1.8-3.607-10.836.844-1.643,3.555,10.68.882-1.713-5.109-15.131a17.556,17.556,0,0,0,7.438-4.778c.017-.017.032-.038.05-.055a14.008,14.008,0,0,0,3.351-6.563q1.346-5.964-1.958-9.218t-10.3-3.254H2250.06a1.643,1.643,0,0,0-.941.286,1.743,1.743,0,0,0-.727,1.08l-7.934,35.506a1.139,1.139,0,0,0,.158.985,1.048,1.048,0,0,0,.89.384h7a1.629,1.629,0,0,0,1.063-.384,1.748,1.748,0,0,0,.6-.985l2.65-12.093h3.966l8.576,25.761h0A1.219,1.219,0,0,0,2265.851,1223.04Zm-9.159-43.574h6.292q2.659,0,3.582,1.311a4.185,4.185,0,0,1,.441,3.447,5.956,5.956,0,0,1-2.051,3.447,6.339,6.339,0,0,1-4.108,1.259h-6.292Z" transform="translate(-566.339 -1.528)" fill="#fff"/>
    <path id="Path_50" data-name="Path 50" d="M2643.511,1836.646l3.817,11.466.8-1.81-3.765-11.308Z" transform="translate(-947.18 -628.047)" fill="#3e1c47"/>
    <path id="Path_51" data-name="Path 51" d="M2750.934,2072.636l-.725,1.643.725-1.643Z" transform="translate(-1047.986 -852.569)" fill="#3e1c47"/>
    <path id="Path_52" data-name="Path 52" d="M2726.993,1220.068l.793-1.8h0l.793-1.8h0l.793-1.8v0l.622-1.409,17.677-40.062,1.268-2.872.039-.089h-1.4l-.039.089-22.67,51.377h1.4l.725-1.643Z" transform="translate(-1024.046)" fill="#3e1c47"/>
    <path id="Path_53" data-name="Path 53" d="M2674.267,1776.959l3.711,11.15.792-1.8-3.66-10.993Z" transform="translate(-976.238 -571.664)" fill="#3e1c47"/>
    <path id="Path_54" data-name="Path 54" d="M2777.7,2009.343h0l.793-1.8h0Z" transform="translate(-1073.963 -791.073)" fill="#3e1c47"/>
    <path id="Path_55" data-name="Path 55" d="M2801.209,2072.5l-.729,1.651h.014l.721-1.633Z" transform="translate(-1095.482 -852.44)" fill="#3e1c47"/>
    <path id="Path_56" data-name="Path 56" d="M2704.847,1717.452l3.608,10.836.792-1.8-3.556-10.68Z" transform="translate(-1005.129 -515.443)" fill="#3e1c47"/>
    <path id="Path_57" data-name="Path 57" d="M2776.529,1220.078l.793-1.8-.006-.018.59-1.336,17.151-38.83,3.429-7.764.039-.089h-1.4l-.039.089-22.693,51.377-.043.1h1.4l.043-.1.729-1.651Z" transform="translate(-1070.796)" fill="#3e1c47"/>
    <path id="Path_58" data-name="Path 58" d="M2828.055,2017.111l.006.018.59-1.336-.006-.018Z" transform="translate(-1121.534 -798.847)" fill="#3e1c47"/>
    <path id="Path_59" data-name="Path 59" d="M2806.425,1950.895v0l.622-1.408v0Z" transform="translate(-1101.099 -736.218)" fill="#3e1c47"/>
    <path id="Path_60" data-name="Path 60" d="M2725.1,1171.848h-.3a1.786,1.786,0,0,0-1.588.969l-16.837,38.26-.653,1.484-.792,1.8-.792,1.8-.792,1.8-.8,1.81-.8,1.81-.636,1.447a1.217,1.217,0,0,0,.666.2h.645Z" transform="translate(-1001.603 -1.514)" fill="#e30249"/>
    <path id="Path_61" data-name="Path 61" d="M2774.278,1171.848h-1.4l-1.268,2.872,0,.02-17.679,40.044-.622,1.408-.793,1.8-.793,1.8-.793,1.8-.725,1.643h1.376Z" transform="translate(-1047.986 -1.514)" fill="#e30249"/>
    <path id="Path_62" data-name="Path 62" d="M2824.8,1171.848h-1.383l-3.429,7.764v.01l-17.146,38.838-.59,1.336-.793,1.8-.721,1.633h1.391Z" transform="translate(-1095.731 -1.514)" fill="#e30249"/>
    <path id="Path_63" data-name="Path 63" d="M2844.431,1182.973l5.577-12.639.039-.089h-1.4l-.039.089-22.67,51.377h1.391l15.289-34.63Z" transform="translate(-1119.535)" fill="#3e1c47"/>
  </g>
</svg>
