<svg xmlns="http://www.w3.org/2000/svg" width="27.14" height="27.139" viewBox="0 0 27.14 27.139">
  <path id="Path_65" data-name="Path 65" d="M1240.813,3854.7a1.627,1.627,0,1,1-1.152.477A1.632,1.632,0,0,1,1240.813,3854.7Zm-7.244,4.349a4.522,4.522,0,1,0,3.2,1.325A4.523,4.523,0,0,0,1233.57,3859.047Zm0-2.445a6.968,6.968,0,1,1-4.927,2.041A6.972,6.972,0,0,1,1233.57,3856.6Zm.318-4.156h-.635c-3.333,0-3.778.015-5.166.079a7.522,7.522,0,0,0-2.52.467,4.49,4.49,0,0,0-2.576,2.576,7.5,7.5,0,0,0-.467,2.52c-.064,1.388-.079,1.833-.079,5.166v.635c0,3.333.015,3.778.079,5.166a7.538,7.538,0,0,0,.467,2.52,4.492,4.492,0,0,0,2.576,2.575,7.492,7.492,0,0,0,2.52.467c1.43.066,1.859.079,5.484.079h.108c3.524,0,3.958-.013,5.374-.079a7.521,7.521,0,0,0,2.521-.467,4.491,4.491,0,0,0,2.576-2.575,7.506,7.506,0,0,0,.467-2.52c.065-1.431.079-1.859.079-5.483v-.109c0-3.524-.014-3.958-.079-5.374a7.538,7.538,0,0,0-.467-2.521,4.489,4.489,0,0,0-2.576-2.576,7.485,7.485,0,0,0-2.52-.467C1237.665,3852.46,1237.22,3852.445,1233.887,3852.445ZM1234,3850c3.3,0,3.778.017,5.167.082a9.98,9.98,0,0,1,3.293.63,6.927,6.927,0,0,1,3.969,3.969,9.973,9.973,0,0,1,.631,3.293c.065,1.448.082,1.909.082,5.595v.109c0,3.586-.016,4.053-.082,5.486a9.979,9.979,0,0,1-.631,3.294,6.929,6.929,0,0,1-3.969,3.969,9.979,9.979,0,0,1-3.293.631c-1.448.065-1.909.082-5.595.082h-.109c-3.587,0-4.053-.016-5.486-.082a9.978,9.978,0,0,1-3.293-.631,6.929,6.929,0,0,1-3.969-3.969,9.986,9.986,0,0,1-.631-3.294c-.064-1.389-.082-1.871-.082-5.167v-.855c0-3.3.017-3.778.082-5.167a9.98,9.98,0,0,1,.631-3.293,6.928,6.928,0,0,1,3.969-3.969,9.98,9.98,0,0,1,3.293-.63c1.39-.064,1.871-.082,5.168-.082Z" transform="translate(-1220 -3850)" fill="#fff" fill-rule="evenodd"/>
</svg>
