<svg xmlns="http://www.w3.org/2000/svg" xmlns:xlink="http://www.w3.org/1999/xlink" width="88.105" height="88.105" viewBox="0 0 88.105 88.105">
  <defs>
    <clipPath id="clip-path">
      <circle id="Ellipse_95" data-name="Ellipse 95" cx="44.053" cy="44.053" r="44.053" fill="none"/>
    </clipPath>
  </defs>
  <g id="Group_140" data-name="Group 140" transform="translate(-7.604 -8.227)">
    <g id="Group_139" data-name="Group 139" transform="translate(7.604 8.227)" clip-path="url(#clip-path)">
      <circle id="Ellipse_91" data-name="Ellipse 91" cx="44.053" cy="44.053" r="44.053" fill="#e40048"/>
      <path id="Path_156" data-name="Path 156" d="M1.578,49.581l30,34.554a5.168,5.168,0,0,0,3.9,1.779H81.97L34.2,31.6a4.324,4.324,0,0,0-3.248-1.469H15.82" transform="translate(-5.057 -17.484)" fill="none" stroke="#fff" stroke-linejoin="round" stroke-width="2"/>
      <line id="Line_69" data-name="Line 69" y2="26.659" transform="translate(22.688 62.232)" fill="none" stroke="#fff" stroke-linejoin="round" stroke-width="2"/>
      <line id="Line_70" data-name="Line 70" y2="21.216" transform="translate(74.145 68.43)" fill="none" stroke="#fff" stroke-linejoin="round" stroke-width="2"/>
      <line id="Line_71" data-name="Line 71" x2="48.814" transform="translate(23.787 63.681)" fill="none" stroke="#fff" stroke-linejoin="round" stroke-width="2"/>
      <line id="Line_72" data-name="Line 72" x2="48.488" transform="translate(19.022 58.011)" fill="none" stroke="#fff" stroke-linejoin="round" stroke-width="2"/>
      <line id="Line_73" data-name="Line 73" x2="48.494" transform="translate(14.248 52.34)" fill="none" stroke="#fff" stroke-linejoin="round" stroke-width="2"/>
      <line id="Line_74" data-name="Line 74" x2="48.514" transform="translate(9.308 46.669)" fill="none" stroke="#fff" stroke-linejoin="round" stroke-width="2"/>
      <line id="Line_75" data-name="Line 75" x2="48.471" transform="translate(4.377 40.999)" fill="none" stroke="#fff" stroke-linejoin="round" stroke-width="2"/>
      <line id="Line_76" data-name="Line 76" x2="48.279" transform="translate(-0.62 35.328)" fill="none" stroke="#fff" stroke-linejoin="round" stroke-width="2"/>
      <line id="Line_77" data-name="Line 77" x2="43.823" transform="translate(-1.359 29.658)" fill="none" stroke="#fff" stroke-linejoin="round" stroke-width="2"/>
      <line id="Line_78" data-name="Line 78" x2="43.263" transform="translate(-3.001 23.987)" fill="none" stroke="#fff" stroke-linejoin="round" stroke-width="2"/>
      <line id="Line_79" data-name="Line 79" x2="30.972" transform="translate(1.762 18.317)" fill="none" stroke="#fff" stroke-linejoin="round" stroke-width="2"/>
      <path id="Path_157" data-name="Path 157" d="M1.81,30.13" transform="translate(-5.155 -17.484)" fill="none" stroke="#fff" stroke-linejoin="round" stroke-width="2"/>
      <path id="Path_158" data-name="Path 158" d="M50.919,58.2V47.514a2.651,2.651,0,0,1,2.651-2.652H68.043a2.651,2.651,0,0,1,2.651,2.652V80.541Z" transform="translate(-25.91 -23.71)" fill="#3e1c47"/>
      <g id="Group_138" data-name="Group 138" transform="translate(32.576 74.056)">
        <circle id="Ellipse_92" data-name="Ellipse 92" cx="1.755" cy="1.755" r="1.755" transform="translate(0)" fill="#fff"/>
        <circle id="Ellipse_93" data-name="Ellipse 93" cx="1.056" cy="1.056" r="1.056" transform="translate(4.345 4.175)" fill="#fff"/>
        <circle id="Ellipse_94" data-name="Ellipse 94" cx="0.565" cy="0.565" r="0.565" transform="translate(1.19 5.231)" fill="#fff"/>
      </g>
    </g>
  </g>
</svg>
