<svg xmlns="http://www.w3.org/2000/svg" width="94" height="65.522" viewBox="0 0 94 65.522">
  <g id="Group_200" data-name="Group 200" transform="translate(-670 -2050)">
    <rect id="Rectangle_187" data-name="Rectangle 187" width="94" height="53" rx="5" transform="translate(670 2050)" fill="#3e1c47"/>
    <path id="Path_195" data-name="Path 195" d="M822.022,522.218l18.816,18.816a3.843,3.843,0,0,1,.346,5.037l-18.816,24.846a3.842,3.842,0,0,1-6.126,0L797.426,546.07a3.843,3.843,0,0,1,.346-5.037l18.816-18.816A3.842,3.842,0,0,1,822.022,522.218Z" transform="translate(-101.67 1543.083)" fill="#3e1c47"/>
    <g id="Group_199" data-name="Group 199" transform="translate(679.223 2061.431)">
      <path id="Path_43" data-name="Path 43" d="M2817.684,1249.323l11.229-25.434,0-.012-11.228,25.445Z" transform="translate(-2776.421 -1221.996)" fill="none"/>
      <path id="Path_44" data-name="Path 44" d="M3129.2,1400.782h0l-1.151,2.609Z" transform="translate(-3075.904 -1392.697)" fill="none"/>
      <path id="Path_45" data-name="Path 45" d="M2838.747,1337.146l10.89-24.667v-.006l-10.893,24.662Z" transform="translate(-2796.742 -1307.485)" fill="none"/>
      <path id="Path_46" data-name="Path 46" d="M2503.148,1314.785a3.784,3.784,0,0,0,1.3-2.189,2.66,2.66,0,0,0-.28-2.189,2.619,2.619,0,0,0-2.275-.833h-4l-1.356,6.01h4A4.027,4.027,0,0,0,2503.148,1314.785Z" transform="translate(-2466.541 -1304.688)" fill="none"/>
      <path id="Path_47" data-name="Path 47" d="M2881.376,1171.848H2874.8a1.075,1.075,0,0,0-.951.573l-5.927,11.225-1.45-11.475a.322.322,0,0,0-.322-.324h-.611l-3.542,8.028h0l-1.151,2.607-9.71,21.995h.2a1.135,1.135,0,0,0,1.009-.615l9.857-22.441,1.292,9.934a.527.527,0,0,0,.527.528h4.946v-.008a1.62,1.62,0,0,0,1.27-.855l5.266-9.972v14.465a.668.668,0,0,0,.668.668h5.211a.668.668,0,0,0,.668-.668v-23A.668.668,0,0,0,2881.376,1171.848Z" transform="translate(-2808.699 -1171.792)" fill="#e30249"/>
      <path id="Path_48" data-name="Path 48" d="M1661.738,1177.1a1.1,1.1,0,0,0,.69-.243,1.063,1.063,0,0,0,.4-.624l.79-3.5a.687.687,0,0,0-.117-.624.717.717,0,0,0-.581-.243h-15.771a1.032,1.032,0,0,0-.673.243,1.1,1.1,0,0,0-.381.624l-5.084,22.527a.719.719,0,0,0,.1.624.664.664,0,0,0,.564.243H1646a1.031,1.031,0,0,0,.673-.243,1.1,1.1,0,0,0,.381-.624l1.768-7.832h9.9a1.069,1.069,0,0,0,.694-.26,1.09,1.09,0,0,0,.395-.606l.782-3.466a.739.739,0,0,0-.113-.641.683.683,0,0,0-.577-.26H1650l1.15-5.095Z" transform="translate(-1640.981 -1171.806)" fill="#e30249"/>
      <path id="Path_49" data-name="Path 49" d="M2256.57,1204.367l.4-.919-2.424-7.282.539-1.049,2.391,7.182.506-1.15-2.357-7.082.536-1.043,2.325,6.982.5-1.143-2.291-6.883.536-1.043,2.258,6.783.56-1.088-3.245-9.61a11.151,11.151,0,0,0,4.724-3.035c.011-.011.021-.024.032-.035a8.9,8.9,0,0,0,2.128-4.168q.855-3.788-1.243-5.854t-6.544-2.067h-9.367a1.044,1.044,0,0,0-.6.182,1.106,1.106,0,0,0-.462.686l-5.039,22.551a.723.723,0,0,0,.1.626.665.665,0,0,0,.565.244h4.444a1.034,1.034,0,0,0,.675-.244,1.11,1.11,0,0,0,.382-.626l1.683-7.681h2.519l5.447,16.362h0A.773.773,0,0,0,2256.57,1204.367Zm-5.817-27.675h4a2.62,2.62,0,0,1,2.275.833,2.658,2.658,0,0,1,.28,2.189,3.783,3.783,0,0,1-1.3,2.189,4.026,4.026,0,0,1-2.609.8h-4Z" transform="translate(-2219.395 -1171.806)" fill="#fff"/>
      <path id="Path_50" data-name="Path 50" d="M2643.511,1836.043l2.424,7.282.506-1.149-2.391-7.182Z" transform="translate(-2608.356 -1811.684)" fill="#3e1c47"/>
      <path id="Path_51" data-name="Path 51" d="M2750.669,2072.636l-.46,1.044.461-1.043Z" transform="translate(-2711.312 -2040.993)" fill="#3e1c47"/>
      <path id="Path_52" data-name="Path 52" d="M2726.218,1201.889l.5-1.141h0l.5-1.141h0l.5-1.141h0l.395-.895,11.227-25.445.805-1.824.025-.056h-.889l-.025.056-14.4,32.631h.888l.46-1.044Z" transform="translate(-2686.861 -1170.245)" fill="#3e1c47"/>
      <path id="Path_53" data-name="Path 53" d="M2674.267,1776.36l2.357,7.082.5-1.143-2.324-6.982Z" transform="translate(-2638.034 -1754.099)" fill="#3e1c47"/>
      <path id="Path_54" data-name="Path 54" d="M2777.7,2008.688h0l.5-1.141h0Z" transform="translate(-2737.843 -1978.185)" fill="#3e1c47"/>
      <path id="Path_55" data-name="Path 55" d="M2800.943,2072.5l-.463,1.049h.009l.458-1.037Z" transform="translate(-2759.821 -2040.861)" fill="#3e1c47"/>
      <path id="Path_56" data-name="Path 56" d="M2704.847,1716.852l2.291,6.883.5-1.143-2.258-6.783Z" transform="translate(-2667.541 -1696.678)" fill="#3e1c47"/>
      <path id="Path_57" data-name="Path 57" d="M2775.734,1201.9l.5-1.141,0-.011.375-.848,10.893-24.662,2.178-4.931.025-.056h-.889l-.025.056-14.413,32.631-.028.063h.888l.028-.063.463-1.049Z" transform="translate(-2734.608 -1170.245)" fill="#3e1c47"/>
      <path id="Path_58" data-name="Path 58" d="M2828.055,2016.623l0,.011.375-.849,0-.011Z" transform="translate(-2786.428 -1986.125)" fill="#3e1c47"/>
      <path id="Path_59" data-name="Path 59" d="M2806.425,1950.381h0l.4-.894v0Z" transform="translate(-2765.557 -1922.161)" fill="#3e1c47"/>
      <path id="Path_60" data-name="Path 60" d="M2716.346,1171.848h-.189a1.134,1.134,0,0,0-1.009.615l-10.694,24.3-.415.943-.5,1.143-.5,1.143-.5,1.143-.506,1.15-.506,1.15-.4.919a.772.772,0,0,0,.423.126h.41Z" transform="translate(-2663.939 -1171.792)" fill="#e30249"/>
      <path id="Path_61" data-name="Path 61" d="M2765.5,1171.848h-.889l-.8,1.824,0,.012-11.229,25.434-.4.895-.5,1.141-.5,1.141-.5,1.141-.461,1.043h.874Z" transform="translate(-2711.312 -1171.792)" fill="#e30249"/>
      <path id="Path_62" data-name="Path 62" d="M2816.025,1171.848h-.878l-2.178,4.931v.006l-10.89,24.667-.375.848-.5,1.141-.458,1.037h.883Z" transform="translate(-2760.075 -1171.792)" fill="#e30249"/>
      <path id="Path_63" data-name="Path 63" d="M2837.684,1178.329l3.542-8.028.025-.056h-.889l-.025.056-14.4,32.631h.884l9.71-21.995Z" transform="translate(-2784.386 -1170.245)" fill="#3e1c47"/>
    </g>
  </g>
</svg>
