<svg xmlns="http://www.w3.org/2000/svg" xmlns:xlink="http://www.w3.org/1999/xlink" width="152.597" height="152.596" viewBox="0 0 152.597 152.596">
  <defs>
    <clipPath id="clip-path">
      <circle id="Ellipse_34" data-name="Ellipse 34" cx="76.298" cy="76.298" r="76.298" transform="translate(430.997 667.633)" fill="none"/>
    </clipPath>
  </defs>
  <g id="Group_48" data-name="Group 48" transform="translate(-430.997 -667.633)">
    <circle id="Ellipse_30" data-name="Ellipse 30" cx="76.298" cy="76.298" r="76.298" transform="translate(430.997 667.633)" fill="#e30249"/>
    <g id="Group_47" data-name="Group 47">
      <g id="Group_46" data-name="Group 46" clip-path="url(#clip-path)">
        <g id="Group_45" data-name="Group 45">
          <g id="Group_40" data-name="Group 40">
            <ellipse id="Ellipse_31" data-name="Ellipse 31" cx="5.262" cy="8.4" rx="5.262" ry="8.4" transform="translate(458.357 773.943) rotate(-68.546)" fill="#fff"/>
            <line id="Line_9" data-name="Line 9" x1="15.82" y2="40.258" transform="translate(452.28 772.119)" fill="none" stroke="#fff" stroke-linecap="round" stroke-linejoin="round" stroke-width="2"/>
          </g>
          <g id="Group_44" data-name="Group 44">
            <g id="Group_41" data-name="Group 41">
              <path id="Path_88" data-name="Path 88" d="M520.393,730.342,601.1,818.867,588.627,829.1l-12.478,10.233-71.012-96.479Z" fill="#3e1c47"/>
              <path id="Path_89" data-name="Path 89" d="M549.045,697.075l-.621,6.613c-15.673-.935-30.81,8.1-25.743,25.13l-18.989,15.573a13.053,13.053,0,0,0-1.212-1.288c-3.7-3.459-8.832-4.2-12.087-1.535-3.624,2.973-3.549,9.057.169,13.591l-7.871,6.455-20.3-24.756,7.867-6.452c.035.042.071.078.106.121,3.734,4.147,9.4,5.214,12.9,2.346a8.024,8.024,0,0,0,2.573-7.494,12.33,12.33,0,0,0-2.735-6.1c-.061-.075-.119-.146-.184-.217l18.954-15.545C522.163,686.878,549.045,697.075,549.045,697.075Z" fill="none" stroke="#fff" stroke-linecap="round" stroke-linejoin="round" stroke-width="2"/>
            </g>
            <g id="Group_43" data-name="Group 43">
              <g id="Group_42" data-name="Group 42">
                <path id="Path_90" data-name="Path 90" d="M487.209,754.39l-4.278,3.44-16.8-20.487,4.279-3.431Z" fill="#fff"/>
              </g>
            </g>
            <circle id="Ellipse_32" data-name="Ellipse 32" cx="3.192" cy="3.192" r="3.192" transform="translate(546.086 766.708)" fill="#e30249"/>
            <circle id="Ellipse_33" data-name="Ellipse 33" cx="2.162" cy="2.162" r="2.162" transform="translate(539.599 766.337)" fill="#e30249"/>
          </g>
        </g>
      </g>
    </g>
  </g>
</svg>
