<svg xmlns="http://www.w3.org/2000/svg" width="596.388" height="707.006" viewBox="0 0 596.388 707.006">
  <g id="Group_67" data-name="Group 67" transform="translate(272.55 -1381.049)">
    <path id="Path_98" data-name="Path 98" d="M323.838,1381.163h-20.77L-9.014,2088.055h4.26A24.587,24.587,0,0,0,17.1,2074.727l4.219-9.322h0Z" fill="#c60939"/>
    <path id="Path_99" data-name="Path 99" d="M-45.61,2040.868l10.913-24.719.008.023,280.5-635.009H226.388L-85.694,2088.055h19.252l9.919-22.468,0,.007,10.916-24.711Z" fill="#c60939"/>
    <path id="Path_100" data-name="Path 100" d="M-73.068,2015.889l10.916-24.711,10.916-24.712,10.978-24.853,11.429-25.873h0l235.787-533.777.4-.914h-4.435a24.588,24.588,0,0,0-21.858,13.328L-48.654,1916.392l-142.3-385.683-11.685,22.73L-59.615,1941.3l-10.9,24.765L-214.258,1576.04l-11.619,22.6,144.466,392.185-10.9,24.765-145.186-394.349-11.685,22.731L-103.27,2040.5l-10.961,24.906-146.634-398.7-11.685,22.731,142.779,387.121a16.808,16.808,0,0,0,15.949,11.5h7.132l-.042-.126a12.894,12.894,0,0,0,1.786.126l9.984-22.6,10.978-24.853Z" fill="#c60939"/>
    <path id="Path_101" data-name="Path 101" d="M264.783,1381.163-47.3,2088.055h19.143L284.1,1381.163Z" fill="#c60939"/>
  </g>
</svg>
