<svg xmlns="http://www.w3.org/2000/svg" xmlns:xlink="http://www.w3.org/1999/xlink" width="152.597" height="152.596" viewBox="0 0 152.597 152.596">
  <defs>
    <clipPath id="clip-path">
      <circle id="Ellipse_22" data-name="Ellipse 22" cx="76.298" cy="76.298" r="76.298" transform="translate(238.314 393.817)" fill="none"/>
    </clipPath>
  </defs>
  <g id="Group_33" data-name="Group 33" transform="translate(-238.314 -393.817)">
    <g id="Group_31" data-name="Group 31">
      <circle id="Ellipse_21" data-name="Ellipse 21" cx="76.298" cy="76.298" r="76.298" transform="translate(238.314 393.817)" fill="#e30249"/>
      <g id="Group_30" data-name="Group 30">
        <g id="Group_29" data-name="Group 29" clip-path="url(#clip-path)">
          <g id="Group_28" data-name="Group 28">
            <path id="Path_70" data-name="Path 70" d="M304.887,430.1V387.789H274.439v44.4" fill="none" stroke="#fff" stroke-miterlimit="10" stroke-width="2"/>
            <line id="Line_8" data-name="Line 8" x2="23.508" transform="translate(373.698 450.735)" fill="none" stroke="#fff" stroke-miterlimit="10" stroke-width="2"/>
            <g id="Group_27" data-name="Group 27">
              <path id="Path_71" data-name="Path 71" d="M350.666,481.352v5.84a36.115,36.115,0,1,1-72.23,0v-5.72c3.23-1.75,9.04-1.7,12.27-.41,4.12,1.65,6.07,2.76,10.18,2.24v3.88a13.68,13.68,0,1,0,27.36,0v-3.9c4.25.58,6.2-.54,10.38-2.22C341.786,479.8,347.4,479.722,350.666,481.352Z" fill="#fff"/>
            </g>
            <path id="Path_72" data-name="Path 72" d="M274.452,467.146V425.858h30.435v41.288" fill="none" stroke="#fff" stroke-miterlimit="10" stroke-width="2"/>
            <path id="Path_73" data-name="Path 73" d="M354.665,474.809V487.2a40.114,40.114,0,0,1-40.113,40.114h0A40.114,40.114,0,0,1,274.439,487.2V474.809" fill="none" stroke="#fff" stroke-miterlimit="10" stroke-width="2"/>
            <path id="Path_74" data-name="Path 74" d="M304.889,474.809v12.374a9.678,9.678,0,0,0,9.677,9.677h0a9.677,9.677,0,0,0,9.677-9.677V474.809" fill="none" stroke="#fff" stroke-miterlimit="10" stroke-width="2"/>
            <path id="Path_75" data-name="Path 75" d="M324.243,467.14V455.027a34.714,34.714,0,0,1,34.714-34.714h19.3v30.422H364.556a9.891,9.891,0,0,0-9.891,9.891v6.514" fill="none" stroke="#fff" stroke-miterlimit="10" stroke-width="2"/>
            <rect id="Rectangle_28" data-name="Rectangle 28" width="39.947" height="7.669" rx="3.834" transform="translate(269.696 467.14)" fill="#3e1c47"/>
            <rect id="Rectangle_29" data-name="Rectangle 29" width="39.947" height="7.669" rx="3.834" transform="translate(319.068 467.14)" fill="#3e1c47"/>
            <rect id="Rectangle_30" data-name="Rectangle 30" width="39.947" height="7.669" rx="3.834" transform="translate(384.741 415.766) rotate(90)" fill="#3e1c47"/>
            <rect id="Rectangle_31" data-name="Rectangle 31" width="39.947" height="7.669" rx="3.834" transform="translate(318.386 491.162) rotate(90)" fill="#3e1c47"/>
            <rect id="Rectangle_32" data-name="Rectangle 32" width="39.947" height="7.669" rx="3.834" transform="translate(269.696 419.433)" fill="#3e1c47"/>
          </g>
        </g>
      </g>
    </g>
    <g id="Group_32" data-name="Group 32">
      <circle id="Ellipse_23" data-name="Ellipse 23" cx="2.07" cy="2.07" r="2.07" transform="translate(332.435 489.206)" fill="#e30249"/>
      <circle id="Ellipse_24" data-name="Ellipse 24" cx="2.07" cy="2.07" r="2.07" transform="translate(295.008 499.132)" fill="#e30249"/>
      <circle id="Ellipse_25" data-name="Ellipse 25" cx="1.166" cy="1.166" r="1.166" transform="translate(297.854 505.542)" fill="#e30249"/>
      <circle id="Ellipse_26" data-name="Ellipse 26" cx="1.166" cy="1.166" r="1.166" transform="translate(338.891 494.26)" fill="#e30249"/>
      <circle id="Ellipse_27" data-name="Ellipse 27" cx="1.166" cy="1.166" r="1.166" transform="translate(292.676 504.376)" fill="#e30249"/>
    </g>
  </g>
</svg>
