<svg xmlns="http://www.w3.org/2000/svg" xmlns:xlink="http://www.w3.org/1999/xlink" width="91.329" height="91.329" viewBox="0 0 91.329 91.329">
  <defs>
    <clipPath id="clip-path">
      <circle id="Ellipse_38" data-name="Ellipse 38" cx="45.665" cy="45.665" r="45.665" fill="none"/>
    </clipPath>
  </defs>
  <g id="Group_68" data-name="Group 68" transform="translate(-61.167 -1080.402)">
    <g id="Group_52" data-name="Group 52" transform="translate(61.167 1080.402)" clip-path="url(#clip-path)">
      <circle id="Ellipse_35" data-name="Ellipse 35" cx="45.665" cy="45.665" r="45.665" fill="#e30249"/>
      <g id="Group_51" data-name="Group 51" transform="translate(17.974 23.576)">
        <path id="Path_91" data-name="Path 91" d="M171.285,1120.946H74.576l5.765-22.955H177.05Z" transform="translate(-74.576 -1097.991)" fill="none" stroke="#fff" stroke-linecap="round" stroke-miterlimit="10" stroke-width="1.486"/>
        <text id="Submit" transform="translate(12.22 15.596)" fill="#fff" font-size="13" font-family="Montserrat-ExtraBoldItalic, Montserrat" font-weight="800" font-style="italic"><tspan x="0" y="0">Submit</tspan></text>
        <g id="Group_50" data-name="Group 50" transform="translate(14.066 13.457)">
          <path id="Path_92" data-name="Path 92" d="M113.8,1132.5a14.363,14.363,0,0,1-15.057,14.347,14.63,14.63,0,0,1-13.67-14.752v-5.09h25.545a3.182,3.182,0,0,1,3.182,3.182Z" transform="translate(-85.069 -1101.568)" fill="#3e1c47"/>
          <g id="Group_49" data-name="Group 49" transform="translate(18.68 29.44)">
            <circle id="Ellipse_36" data-name="Ellipse 36" cx="1.706" cy="1.706" r="1.706" transform="translate(2.853 2.548)" fill="#e30249"/>
            <circle id="Ellipse_37" data-name="Ellipse 37" cx="1.194" cy="1.194" r="1.194" fill="#e30249"/>
          </g>
          <path id="Rectangle_35" data-name="Rectangle 35" d="M2.26,0H5.433a2.26,2.26,0,0,1,2.26,2.26V25.613a0,0,0,0,1,0,0H0a0,0,0,0,1,0,0V2.26A2.26,2.26,0,0,1,2.26,0Z" transform="translate(0.004)" fill="#3e1c47"/>
          <path id="Rectangle_36" data-name="Rectangle 36" d="M2.26,0H5.433a2.26,2.26,0,0,1,2.26,2.26V25.613a0,0,0,0,1,0,0H0a0,0,0,0,1,0,0V2.26A2.26,2.26,0,0,1,2.26,0Z" transform="translate(6.315 13.883)" fill="#3e1c47"/>
          <path id="Rectangle_37" data-name="Rectangle 37" d="M2.26,0H5.433a2.26,2.26,0,0,1,2.26,2.26V25.613a0,0,0,0,1,0,0H0a0,0,0,0,1,0,0V2.26A2.26,2.26,0,0,1,2.26,0Z" transform="translate(13.572 13.883)" fill="#3e1c47"/>
          <path id="Rectangle_38" data-name="Rectangle 38" d="M2.26,0H5.433a2.26,2.26,0,0,1,2.26,2.26V16.216a0,0,0,0,1,0,0H0a0,0,0,0,1,0,0V2.26A2.26,2.26,0,0,1,2.26,0Z" transform="translate(21.035 13.883)" fill="#3e1c47"/>
        </g>
      </g>
    </g>
  </g>
</svg>
