<svg xmlns="http://www.w3.org/2000/svg" width="27.754" height="22.554" viewBox="0 0 27.754 22.554">
  <path id="Path_66" data-name="Path 66" d="M1276.729,3874.554c10.473,0,16.2-8.677,16.2-16.2,0-.247,0-.492-.017-.735a11.578,11.578,0,0,0,2.841-2.95,11.375,11.375,0,0,1-3.271.9,5.709,5.709,0,0,0,2.5-3.15,11.4,11.4,0,0,1-3.615,1.382,5.7,5.7,0,0,0-9.7,5.194,16.165,16.165,0,0,1-11.736-5.949,5.7,5.7,0,0,0,1.762,7.6,5.631,5.631,0,0,1-2.584-.71V3860a5.693,5.693,0,0,0,4.568,5.581,5.664,5.664,0,0,1-2.571.1,5.7,5.7,0,0,0,5.32,3.955A11.414,11.414,0,0,1,1268,3872a16.1,16.1,0,0,0,8.729,2.553" transform="translate(-1268 -3852)" fill="#fff"/>
</svg>
