<svg id="Group_6" data-name="Group 6" xmlns="http://www.w3.org/2000/svg" width="34.024" height="39.271" viewBox="0 0 34.024 39.271">
  <path id="Path_35" data-name="Path 35" d="M-62.041,2319.187l-17.818,39.262h.35a2.019,2.019,0,0,0,1.794-1.094l17.226-38.168Z" transform="translate(94.512 -2319.178)" fill="#fff"/>
  <path id="Path_36" data-name="Path 36" d="M-177.573,2797.311h.143a1.069,1.069,0,0,1-.147-.01Z" transform="translate(184.208 -2758.04)" fill="#fff"/>
  <path id="Path_37" data-name="Path 37" d="M-153.247,2354.575l.9-2.03v0l15.226-33.36h-1.595l-17.818,39.262h1.581l.814-1.845h0l.9-2.029Z" transform="translate(164.897 -2319.177)" fill="#fff"/>
  <path id="Path_38" data-name="Path 38" d="M-248.954,2352.42l.9-2.029.9-2.029.9-2.04.938-2.125h0l11.555-25.05.033-.075h-.364a2.019,2.019,0,0,0-1.794,1.094l-11.057,24.084-4.618-13.872-6.781,12.784,4.74,14.237a1.38,1.38,0,0,0,1.309.944h.586l0-.01a1.032,1.032,0,0,0,.147.01l.82-1.855.9-2.04Zm-2.912-18.189,4.017,12.065-.895,2.033-4.076-12.243Zm-.467,22.254-4.312-12.954.959-1.866,4.253,12.775Zm-2.394-16.687.954-1.856,4.135,12.42-.895,2.033Z" transform="translate(258.349 -2319.073)" fill="#fff"/>
  <path id="Path_39" data-name="Path 39" d="M-100.325,2319.187l-17.818,39.262h1.572l17.833-39.262Z" transform="translate(129.654 -2319.177)" fill="#fff"/>
</svg>
